<?xml version="1.0" encoding="UTF-8"?>
<svg width="1600px" height="1500px" viewBox="0 0 1600 1500" version="1.1" xmlns="http://www.w3.org/2000/svg" xmlns:xlink="http://www.w3.org/1999/xlink">
    <!-- Generator: Sketch 49.3 (51167) - http://www.bohemiancoding.com/sketch -->
    <defs>
        <style type="text/css">
            @font-face {
                font-family: "GT America", serif;
                src: url('/public/fonts/gt-america-regular.woff') format('woff');
            }
            font-family: "GT America", serif;
        </style>
        <rect id="path-1" x="0" y="23" width="1265" height="1393" rx="37"></rect>
        <rect id="path-2" x="339" y="821" width="1165" height="587" rx="16"></rect>
        <rect id="path-3" x="0" y="0" width="534" height="396" rx="8"></rect>
        <rect id="path-4" x="0" y="19" width="484" height="220" rx="8"></rect>
        <path d="M8,0 L115,0 C119.418278,-8.11624501e-16 123,3.581722 123,8 L123,64 C123,68.418278 119.418278,72 115,72 L8,72 C3.581722,72 5.41083001e-16,68.418278 0,64 L0,8 C-5.41083001e-16,3.581722 3.581722,8.11624501e-16 8,0 Z" id="path-5"></path>
        <mask id="mask-6" maskContentUnits="userSpaceOnUse" maskUnits="objectBoundingBox" x="0" y="0" width="123" height="72" fill="white">
            <use xlink:href="#path-5"></use>
        </mask>
        <rect id="path-7" x="0" y="0" width="534" height="395" rx="8"></rect>
        <rect id="path-8" x="0" y="20" width="485" height="219" rx="8"></rect>
    </defs>
    <g id="k8-arch-diagram-1-dark" stroke="none" stroke-width="1" fill="none" fill-rule="evenodd">
        <g id="1_Azure" transform="translate(291.000000, 44.000000)">
            <g id="Rectangle">
                <use fill-opacity="0.13" fill="#00212D" fill-rule="evenodd" xlink:href="#path-1"></use>
                <rect stroke-opacity="0.518257473" stroke="#FFFFFF" stroke-width="2" x="1" y="24" width="1263" height="1391" rx="37"></rect>
            </g>
            <g id="Group" transform="translate(51.000000, 0.000000)">
                <rect id="Rectangle-2" fill="#3A3A3A" x="0" y="0" width="464" height="50" rx="3"></rect>
                <text id="Virtual-Network-(you" font-family="GTAmerica-Regular, GT America" font-size="20" font-weight="normal" fill="#FFFFFF">
                    <tspan x="20" y="32">Virtual Network (your account)</tspan>
                </text>
                <path d="M437.322638,12.3567877 L452,37.9955619 L422.958004,37.9955619 L441.723157,35.7871024 L431.624632,23.9164718 L437.322638,12.3567877 Z M435.967915,8 L421.499096,34.5741861 L413,35.4925554 L422.583711,19.0873156 L435.967915,8 Z" id="Combined-Shape" fill="#FFFFFF"></path>
                <path d="M392.5,48.5 L409.5,0.5" id="Line" stroke="#FFFFFF" stroke-linecap="square"></path>
                <path d="M313.5,48.5 L330.5,0.5" id="Line" stroke="#FFFFFF" stroke-linecap="square"></path>
                <g id="Amazon_Web_Services_Logo" transform="translate(334.000000, 11.000000)" fill="#FFFFFF">
                    <path d="M14.3208847,11.1148936 C14.3208847,11.7446809 14.38905,12.2553191 14.5083394,12.6297872 C14.6446701,13.0042553 14.8150834,13.412766 15.0536621,13.8553191 C15.1388687,13.9914894 15.1729514,14.1276596 15.1729514,14.2468085 C15.1729514,14.4170213 15.0707034,14.587234 14.8491661,14.7574468 L13.775562,15.4723404 C13.62219,15.5744681 13.468818,15.6255319 13.3324873,15.6255319 C13.162074,15.6255319 12.9916606,15.5404255 12.8212473,15.387234 C12.5826686,15.1319149 12.3781726,14.8595745 12.2077592,14.587234 C12.0373459,14.2978723 11.8669326,13.9744681 11.6794779,13.5829787 C10.3502538,15.1489362 8.68020305,15.9319149 6.6693256,15.9319149 C5.23785352,15.9319149 4.09608412,15.5234043 3.26105874,14.706383 C2.42603336,13.8893617 2,12.8 2,11.4382979 C2,9.99148936 2.51124003,8.81702128 3.55076142,7.93191489 C4.59028281,7.04680851 5.97063089,6.60425532 7.72588832,6.60425532 C8.30529369,6.60425532 8.90174039,6.65531915 9.53226976,6.74042553 C10.1627991,6.82553191 10.8103698,6.96170213 11.4920232,7.11489362 L11.4920232,5.87234043 C11.4920232,4.5787234 11.2193619,3.67659574 10.6910805,3.14893617 C10.1457578,2.6212766 9.22552574,2.36595745 7.913343,2.36595745 C7.3168963,2.36595745 6.70340827,2.43404255 6.0728789,2.58723404 C5.44234953,2.74042553 4.82886149,2.92765957 4.23241479,3.16595745 C3.95975344,3.28510638 3.75525743,3.35319149 3.63596809,3.38723404 C3.51667875,3.4212766 3.43147208,3.43829787 3.36330674,3.43829787 C3.12472806,3.43829787 3.00543872,3.26808511 3.00543872,2.9106383 L3.00543872,2.07659574 C3.00543872,1.80425532 3.03952139,1.6 3.12472806,1.48085106 C3.20993474,1.36170213 3.36330674,1.24255319 3.60188542,1.12340426 C4.19833212,0.817021277 4.91406817,0.561702128 5.74909355,0.357446809 C6.58411893,0.136170213 7.47026831,0.0340425532 8.4075417,0.0340425532 C10.4354605,0.0340425532 11.9180566,0.493617021 12.8723713,1.41276596 C13.8096447,2.33191489 14.286802,3.72765957 14.286802,5.6 L14.286802,11.1148936 L14.3208847,11.1148936 Z M7.40210297,13.7021277 C7.96446701,13.7021277 8.54387237,13.6 9.15736041,13.3957447 C9.77084844,13.1914894 10.3161711,12.8170213 10.7762872,12.306383 C11.0489485,11.9829787 11.2534445,11.6255319 11.3556925,11.2170213 C11.4579405,10.8085106 11.5261059,10.3148936 11.5261059,9.73617021 L11.5261059,9.0212766 C11.0319072,8.90212766 10.5036258,8.8 9.95830312,8.73191489 C9.41298042,8.66382979 8.88469906,8.62978723 8.35641769,8.62978723 C7.2146483,8.62978723 6.37962292,8.85106383 5.81725888,9.3106383 C5.25489485,9.77021277 4.9822335,10.4170213 4.9822335,11.2680851 C4.9822335,12.0680851 5.18672951,12.6638298 5.61276287,13.0723404 C6.02175489,13.4978723 6.6182016,13.7021277 7.40210297,13.7021277 Z M21.0862944,15.5404255 C20.7795504,15.5404255 20.5750544,15.4893617 20.4387237,15.3702128 C20.302393,15.2680851 20.1831037,15.0297872 20.0808557,14.706383 L16.0761421,1.54893617 C15.9738941,1.20851064 15.9227701,0.987234043 15.9227701,0.868085106 C15.9227701,0.595744681 16.0591008,0.442553191 16.3317621,0.442553191 L18.0018129,0.442553191 C18.3255983,0.442553191 18.5471356,0.493617021 18.6664249,0.612765957 C18.8027556,0.714893617 18.9050036,0.953191489 19.0072516,1.27659574 L21.8701958,12.5446809 L24.5286439,1.27659574 C24.6138506,0.936170213 24.7160986,0.714893617 24.8524293,0.612765957 C24.98876,0.510638298 25.2273387,0.442553191 25.5340827,0.442553191 L26.8973894,0.442553191 C27.2211748,0.442553191 27.4427121,0.493617021 27.5790428,0.612765957 C27.7153735,0.714893617 27.8346628,0.953191489 27.9028281,1.27659574 L30.595359,12.6808511 L33.5435098,1.27659574 C33.6457578,0.936170213 33.7650471,0.714893617 33.8843365,0.612765957 C34.0206672,0.510638298 34.2422045,0.442553191 34.5489485,0.442553191 L36.1337926,0.442553191 C36.406454,0.442553191 36.559826,0.578723404 36.559826,0.868085106 C36.559826,0.953191489 36.5427846,1.03829787 36.5257433,1.14042553 C36.508702,1.24255319 36.4746193,1.3787234 36.406454,1.56595745 L32.2994924,14.7234043 C32.1972444,15.0638298 32.077955,15.2851064 31.9416244,15.387234 C31.8052937,15.4893617 31.5837563,15.5574468 31.2940537,15.5574468 L29.8284989,15.5574468 C29.5047136,15.5574468 29.2831762,15.506383 29.1468455,15.387234 C29.0105149,15.2680851 28.8912255,15.0468085 28.8230602,14.706383 L26.1816534,3.72765957 L23.5572879,14.6893617 C23.4720812,15.0297872 23.3698332,15.2510638 23.2335025,15.3702128 C23.0971719,15.4893617 22.8585932,15.5404255 22.5518492,15.5404255 L21.0862944,15.5404255 Z M42.984409,16 C42.0982596,16 41.2121102,15.8978723 40.3600435,15.693617 C39.5079768,15.4893617 38.8433648,15.2680851 38.4002901,15.012766 C38.1276287,14.8595745 37.940174,14.6893617 37.8720087,14.5361702 C37.8038434,14.3829787 37.7697607,14.212766 37.7697607,14.0595745 L37.7697607,13.1914894 C37.7697607,12.8340426 37.9060914,12.6638298 38.1617114,12.6638298 C38.2639594,12.6638298 38.3662074,12.6808511 38.4684554,12.7148936 C38.5707034,12.7489362 38.7240754,12.8170213 38.8944888,12.8851064 C39.4738941,13.1404255 40.1044235,13.3446809 40.7690355,13.4808511 C41.4506889,13.6170213 42.1153009,13.6851064 42.7969543,13.6851064 C43.8705584,13.6851064 44.7055838,13.4978723 45.2849891,13.1234043 C45.8643945,12.7489362 46.1711385,12.2042553 46.1711385,11.506383 C46.1711385,11.0297872 46.0177665,10.6382979 45.7110225,10.3148936 C45.4042785,9.99148936 44.8248731,9.70212766 43.9898477,9.42978723 L41.5188542,8.66382979 C40.2748368,8.27234043 39.3546048,7.69361702 38.7922408,6.92765957 C38.2298767,6.1787234 37.940174,5.34468085 37.940174,4.45957447 C37.940174,3.74468085 38.093546,3.11489362 38.4002901,2.57021277 C38.7070341,2.02553191 39.1160261,1.54893617 39.6272661,1.17446809 C40.1385062,0.782978723 40.7179115,0.493617021 41.3995649,0.289361702 C42.0812183,0.085106383 42.7969543,0 43.546773,0 C43.9216824,0 44.3136331,0.0170212766 44.6885424,0.0680851064 C45.0804931,0.119148936 45.4383611,0.187234043 45.7962292,0.255319149 C46.1370558,0.340425532 46.4608412,0.425531915 46.7675852,0.527659574 C47.0743292,0.629787234 47.3129079,0.731914894 47.4833212,0.834042553 C47.7218999,0.970212766 47.8923133,1.10638298 47.9945613,1.25957447 C48.0968093,1.39574468 48.1479333,1.58297872 48.1479333,1.8212766 L48.1479333,2.6212766 C48.1479333,2.9787234 48.0116026,3.16595745 47.7559826,3.16595745 C47.6196519,3.16595745 47.3981146,3.09787234 47.1084119,2.96170213 C46.1370558,2.51914894 45.0464104,2.29787234 43.8364757,2.29787234 C42.8651197,2.29787234 42.0982596,2.45106383 41.5699782,2.77446809 C41.0416969,3.09787234 40.7690355,3.59148936 40.7690355,4.2893617 C40.7690355,4.76595745 40.9394489,5.17446809 41.2802756,5.49787234 C41.6211022,5.8212766 42.2516316,6.14468085 43.1548223,6.43404255 L45.5746918,7.2 C46.8016679,7.59148936 47.6878173,8.13617021 48.2160986,8.83404255 C48.74438,9.53191489 49,10.3319149 49,11.2170213 C49,11.9489362 48.846628,12.612766 48.5569253,13.1914894 C48.2501813,13.7702128 47.8411893,14.2808511 47.3129079,14.6893617 C46.7846265,15.1148936 46.1540972,15.4212766 45.4213198,15.6425532 C44.6544598,15.8808511 43.853517,16 42.984409,16 Z" id="Shape" fill-rule="nonzero"></path>
                    <g id="Group" transform="translate(0.000000, 19.000000)">
                        <path d="M46.9205298,5.41764706 C41.2556291,9.70588235 33.0251656,11.9823529 25.9483444,11.9823529 C16.0304636,11.9823529 7.09403974,8.22352941 0.344370861,1.97647059 C-0.189403974,1.48235294 0.292715232,0.811764706 0.929801325,1.2 C8.23046358,5.54117647 17.2357616,8.17058824 26.5509934,8.17058824 C32.8357616,8.17058824 39.7403974,6.82941176 46.0940397,4.07647059 C47.0410596,3.63529412 47.8503311,4.71176471 46.9205298,5.41764706 Z" id="Shape"></path>
                        <path d="M49.2794702,2.66470588 C48.5562914,1.71176471 44.4927152,2.20588235 42.6503311,2.43529412 C42.0993377,2.50588235 42.013245,2.01176471 42.5125828,1.64117647 C45.7496689,-0.688235294 51.0701987,-0.0176470588 51.6900662,0.758823529 C52.3099338,1.55294118 51.5178808,7.00588235 48.4874172,9.61764706 C48.0225166,10.0235294 47.5748344,9.81176471 47.781457,9.28235294 C48.4701987,7.53529412 50.002649,3.6 49.2794702,2.66470588 Z" id="Shape"></path>
                    </g>
                </g>
            </g>
        </g>
        <g id="2_Compliance_API" transform="translate(341.000000, 117.000000)">
            <g id="Group-5" transform="translate(182.000000, 74.000000)" fill="#FFFFFF">
                <circle id="Oval" cx="5" cy="12" r="5"></circle>
                <text id="Manages-compliance-s" font-family="GTAmerica-RegularItalic, GT America" font-size="20" font-style="italic" font-weight="normal">
                    <tspan x="20" y="20">Manages compliance state</tspan>
                </text>
            </g>
            <g id="Group-4">
                <rect id="Rectangle-4" stroke="#FFFFFF" stroke-width="2" transform="translate(86.078427, 85.717361) rotate(45.000000) translate(-86.078427, -85.717361) " x="26.8299513" y="26.4688854" width="118.496952" height="118.496952"></rect>
                <text id="Compliance-API" font-family="GTAmerica-Regular, GT America" font-size="20" font-weight="normal" fill="#FFFFFF">
                    <tspan x="32.17" y="88">Compliance</tspan>
                    <tspan x="70.2" y="112">API</tspan>
                </text>
            </g>
        </g>
        <g id="3_Public" transform="translate(75.000000, 295.000000)">
            <rect id="Rectangle-3" stroke="#FFFFFF" stroke-width="2" x="1" y="1" width="153" height="70" rx="8"></rect>
            <text id="Public" font-family="GTAmerica-Regular, GT America" font-size="20" font-weight="normal" fill="#FFFFFF">
                <tspan x="49.15" y="44">Public</tspan>
            </text>
            <g id="Group-2" transform="translate(42.000000, 87.000000)" fill="#FFFFFF">
                <circle id="Oval" cx="5" cy="12" r="5"></circle>
                <circle id="Oval" cx="5" cy="43" r="5"></circle>
                <text id="CLI" font-family="GTAmerica-Regular, GT America" font-size="20" font-weight="normal">
                    <tspan x="20" y="20">CLI</tspan>
                </text>
                <text id="Dashboard" font-family="GTAmerica-Regular, GT America" font-size="20" font-weight="normal">
                    <tspan x="20" y="50">Dashboard</tspan>
                </text>
            </g>
            <circle id="Oval" fill="#FFFFFF" cx="47" cy="339" r="5"></circle>
            <g id="_arrow" transform="translate(164.000000, 32.000000)">
                <path d="M0.91015625,7.28515625 L31.9601555,7.28515625" id="Path-4" stroke="#4A90E2" stroke-width="2"></path>
                <polygon id="Triangle" fill="#4A90E2" transform="translate(37.000000, 7.500000) rotate(90.000000) translate(-37.000000, -7.500000) " points="37 1.5 44.5 13.5 29.5 13.5"></polygon>
            </g>
            <g id="_arrow" transform="translate(63.000000, 332.000000)">
                <path d="M-0.000284393948,7.28515625 L131.999716,7.28515625" id="Path-4" stroke="#4A90E2" stroke-width="2"></path>
                <polygon id="Triangle" fill="#4A90E2" transform="translate(138.000000, 7.500000) rotate(90.000000) translate(-138.000000, -7.500000) " points="138 1.5 145.5 13.5 130.5 13.5"></polygon>
            </g>
            <path d="M46.6289062,72.0273438 L46.6289062,340.027344" id="Path-5" stroke="#FFFFFF" stroke-width="2"></path>
        </g>
        <g id="4_Cluster_API" transform="translate(341.000000, 318.000000)">
            <g id="Group-5" transform="translate(182.000000, 73.000000)" fill="#FFFFFF">
                <circle id="Oval" cx="5" cy="12" r="5"></circle>
                <text id="Manages-cluster" font-family="GTAmerica-RegularItalic, GT America" font-size="20" font-style="italic" font-weight="normal">
                    <tspan x="20" y="20">Manages cluster</tspan>
                </text>
            </g>
            <g id="Group-4">
                <rect id="Rectangle-4" stroke="#FFFFFF" stroke-width="2" transform="translate(86.078427, 85.717361) rotate(45.000000) translate(-86.078427, -85.717361) " x="26.8299513" y="26.4688854" width="118.496952" height="118.496952"></rect>
                <text id="Cluster-API" font-family="GTAmerica-Regular, GT America" font-size="20" font-weight="normal" fill="#FFFFFF">
                    <tspan x="53.19" y="88">Cluster</tspan>
                    <tspan x="70.2" y="112">API</tspan>
                </text>
            </g>
        </g>
        <g id="4_Cluster_API" transform="translate(764.000000, 318.000000)">
            <g id="Group-5" transform="translate(182.000000, 73.000000)" fill="#FFFFFF">
                <circle id="Oval" cx="5" cy="12" r="5"></circle>
                <text id="Secret-management" font-family="GTAmerica-RegularItalic, GT America" font-size="20" font-style="italic" font-weight="normal">
                    <tspan x="20" y="20">Secret management</tspan>
                </text>
            </g>
            <g id="Group-4">
                <rect id="Rectangle-4" stroke="#FFFFFF" stroke-width="2" transform="translate(86.078427, 85.717361) rotate(45.000000) translate(-86.078427, -85.717361) " x="26.8299513" y="26.4688854" width="118.496952" height="118.496952"></rect>
                <text id="Vault" font-family="GTAmerica-Regular, GT America" font-size="20" font-weight="normal" fill="#FFFFFF">
                    <tspan x="62.56" y="88">Vault</tspan>
                </text>
            </g>
        </g>
        <g id="4_Cluster_API" transform="translate(764.000000, 550.000000)">
            <g id="Group-5" transform="translate(182.000000, 73.000000)" fill="#FFFFFF">
                <circle id="Oval" cx="5" cy="12" r="5"></circle>
                <text id="Configuration,-state" font-family="GTAmerica-RegularItalic, GT America" font-size="20" font-style="italic" font-weight="normal">
                    <tspan x="20" y="20">Configuration, state management</tspan>
                </text>
            </g>
            <g id="Group-4">
                <rect id="Rectangle-4" stroke="#FFFFFF" stroke-width="2" transform="translate(86.078427, 85.717361) rotate(45.000000) translate(-86.078427, -85.717361) " x="26.8299513" y="26.4688854" width="118.496952" height="118.496952"></rect>
                <text id="Salt,-Terraform" font-family="GTAmerica-Regular, GT America" font-size="20" font-weight="normal" fill="#FFFFFF">
                    <tspan x="65.62" y="83">Salt,</tspan>
                    <tspan x="41.51" y="107">Terraform</tspan>
                </text>
            </g>
        </g>
        <path d="M796,205 L1441,205 L1441,255" id="Path-6" stroke="#FFFFFF" stroke-width="2" stroke-dasharray="5"></path>
        <path d="M1228.90113,770 L1427.06309,770" id="Path-6" stroke="#FFFFFF" stroke-width="2" stroke-dasharray="5"></path>
        <path d="M342.995859,770 L826,770" id="Path-6-Copy" stroke="#FFFFFF" stroke-width="2" stroke-dasharray="5"></path>
        <g id="Group-5" transform="translate(875.000000, 756.000000)" fill="#FFFFFF">
            <circle id="Oval" cx="5" cy="12" r="5"></circle>
            <text id="Installation,-provis" font-family="GTAmerica-RegularItalic, GT America" font-size="20" font-style="italic" font-weight="normal">
                <tspan x="20" y="20">Installation, provision, management</tspan>
            </text>
        </g>
        <g id="_arrow" transform="translate(713.000000, 397.000000)">
            <path d="M0.91015625,7.28515625 L31.9601555,7.28515625" id="Path-4" stroke="#4A90E2" stroke-width="2"></path>
            <polygon id="Triangle" fill="#4A90E2" transform="translate(37.000000, 7.500000) rotate(90.000000) translate(-37.000000, -7.500000) " points="37 1.5 44.5 13.5 29.5 13.5"></polygon>
        </g>
        <g id="_arrow" transform="translate(849.500000, 519.500000) rotate(90.000000) translate(-849.500000, -519.500000) translate(828.000000, 512.000000)">
            <path d="M0.91015625,7.28515625 L31.9601555,7.28515625" id="Path-4" stroke="#4A90E2" stroke-width="2"></path>
            <polygon id="Triangle" fill="#4A90E2" transform="translate(37.000000, 7.500000) rotate(90.000000) translate(-37.000000, -7.500000) " points="37 1.5 44.5 13.5 29.5 13.5"></polygon>
        </g>
        <g id="_arrow" transform="translate(849.500000, 761.500000) rotate(90.000000) translate(-849.500000, -761.500000) translate(828.000000, 754.000000)">
            <path d="M0.91015625,7.28515625 L31.9601555,7.28515625" id="Path-4" stroke="#4A90E2" stroke-width="2"></path>
            <polygon id="Triangle" fill="#4A90E2" transform="translate(37.000000, 7.500000) rotate(90.000000) translate(-37.000000, -7.500000) " points="37 1.5 44.5 13.5 29.5 13.5"></polygon>
        </g>
        <g id="Group-3" transform="translate(342.000000, 565.000000)">
            <path d="M56,124.896193 L57.1359914,126.032185 L113.440529,69.7276471 L56.9679701,13.2550882 L56,14.2230583 L56,8 C56,3.581722 59.581722,-5.40562444e-15 64,-6.21724894e-15 L375,0 C379.418278,-8.11624501e-16 383,3.581722 383,8 L383,133 C383,137.418278 379.418278,141 375,141 L64,141 C59.581722,141 56,137.418278 56,133 L56,124.896193 Z" id="Combined-Shape" fill-opacity="0.0863337862" fill="#000000"></path>
            <g id="4_Cluster_API" transform="translate(0.000000, 13.000000)">
                <g id="Group-4">
                    <rect id="Rectangle-4" stroke="#FFFFFF" stroke-width="2" transform="translate(57.051981, 56.643636) rotate(45.000000) translate(-57.051981, -56.643636) " x="18.1198514" y="17.8303161" width="77.8642587" height="77.6266406"></rect>
                    <text id="User-Auth" font-family="GTAmerica-Regular, GT America" font-size="14" font-weight="normal" fill="#FFFFFF">
                        <tspan x="42.0626977" y="56">User</tspan>
                        <tspan x="41.5306977" y="73">Auth</tspan>
                    </text>
                </g>
            </g>
            <g id="4_Cluster_API" transform="translate(124.000000, 13.000000)">
                <g id="Group-4">
                    <rect id="Rectangle-4" stroke="#FFFFFF" stroke-width="2" transform="translate(57.051981, 56.643636) rotate(45.000000) translate(-57.051981, -56.643636) " x="18.1198514" y="17.8303161" width="77.8642587" height="77.6266406"></rect>
                    <text id="Container-Registry" font-family="GTAmerica-Regular, GT America" font-size="14" font-weight="normal" fill="#FFFFFF">
                        <tspan x="26.287" y="56">Container </tspan>
                        <tspan x="31.719" y="73">Registry</tspan>
                    </text>
                </g>
            </g>
            <g id="4_Cluster_API" transform="translate(249.000000, 14.000000)">
                <g id="Group-4">
                    <rect id="Rectangle-4" stroke="#FFFFFF" stroke-width="2" transform="translate(57.051981, 56.643636) rotate(45.000000) translate(-57.051981, -56.643636) " x="18.1198514" y="17.8303161" width="77.8642587" height="77.6266406"></rect>
                    <text id="Notary-Service" font-family="GTAmerica-Regular, GT America" font-size="14" font-weight="normal" fill="#FFFFFF">
                        <tspan x="36.234" y="56">Notary</tspan>
                        <tspan x="34.351" y="73">Service</tspan>
                    </text>
                </g>
            </g>
        </g>
        <text id="Datica-CCMS" font-family="Roboto-Regular, Roboto" font-size="20" font-weight="normal" fill="#FFFFFF">
            <tspan x="1381" y="363">Datica CCMS</tspan>
        </text>
        <path d="M1410.30612,301.170604 L1414.4898,296.496063 L1429.08163,313.897638 L1410.30612,301.170604 Z M1414.4898,324.304462 L1414.4898,317.992126 L1436.93878,321.131234 L1414.4898,324.304462 Z M1433.06122,338.635171 L1428.84354,333.96063 L1447.61905,321.233596 L1433.06122,338.635171 Z M1456.39456,336.860892 L1450.13605,336.212598 L1455.61224,314.136483 L1456.39456,336.860892 Z M1472.58503,319.868766 L1467.48299,323.553806 L1456.83673,303.490814 L1472.58503,319.868766 Z M1473.26531,296.35958 L1471.93878,302.535433 L1450.64626,294.755906 L1473.26531,296.35958 Z M1458.09524,278.446194 L1461.22449,283.939633 L1440.20408,292.435696 L1458.09524,278.446194 Z M1434.86395,275.341207 L1440.85034,277.286089 L1430.91837,297.724409 L1434.86395,275.341207 Z M1415.5102,288.580052 L1421.2585,286.020997 L1427.51701,307.892388 L1415.5102,288.580052 Z M1410,311.440945 L1412.55102,305.674541 L1431.80272,317.71916 L1410,311.440945 Z M1421.12245,332.11811 L1419.18367,326.112861 L1441.4966,322.154856 L1421.12245,332.11811 Z M1443.19728,340 L1437.72109,336.860892 L1451.70068,318.913386 L1443.19728,340 Z M1464.86395,331.060367 L1458.70748,332.391076 L1457.10884,309.700787 L1464.86395,331.060367 Z M1475,309.871391 L1471.29252,314.989501 L1454.96599,299.191601 L1475,309.871391 Z M1468.40136,287.351706 L1469.04762,293.629921 L1446.39456,292.845144 L1468.40136,287.351706 Z M1448.46939,275 L1453.12925,279.230971 L1435.78231,293.868766 L1448.46939,275 Z M1425.40816,279.230971 L1431.70068,279.230971 L1428.53741,301.750656 L1425.40816,279.230971 Z" id="_datica-mark-deep" fill="#FFFFFF"></path>
        <g id="Rectangle-6">
            <use fill-opacity="0.200000003" fill="#001D34" fill-rule="evenodd" xlink:href="#path-2"></use>
            <rect stroke-opacity="0.518257473" stroke="#FFFFFF" stroke-width="2" x="340" y="822" width="1163" height="585" rx="16"></rect>
        </g>
        <g id="Group" transform="translate(379.000000, 802.000000)">
            <rect id="Rectangle-2" fill="#1A1A1A" x="0" y="0" width="174" height="40" rx="3"></rect>
            <text id="Kubernetes" font-family="GTAmerica-Regular, GT America" font-size="18" font-weight="normal" fill="#FFFFFF">
                <tspan x="20" y="27">Kubernetes</tspan>
            </text>
            <path d="M151.375566,11.4495888 L153.982847,22.6677565 C154.051459,23.250964 153.914234,23.8341715 153.571171,24.31446 L146.332537,33.2684103 C145.955167,33.7830052 145.37196,34.0574558 144.754446,33.9888431 L133.227521,33.9888431 C132.644314,33.9545368 132.061106,33.6800862 131.64943,33.2684103 L124.410796,24.31446 C124.067733,23.8341715 123.930508,23.250964 124.033427,22.6677565 L126.606401,11.3809761 C126.743626,10.7977686 127.120996,10.3517864 127.635591,10.1116422 L138.099019,5.06861265 C138.37347,5 138.682227,5 138.956677,5 C139.231128,5 139.539885,5.03430632 139.814335,5.17153162 L150.277764,10.1802548 C150.792359,10.4547054 151.204035,10.9006876 151.375566,11.4495888 Z M149.763169,22.2217743 C149.728863,22.2217743 149.694556,22.2217743 149.694556,22.1874679 C149.694556,22.1531616 149.625944,22.1531616 149.557331,22.1531616 C149.420106,22.1188553 149.282881,22.1188553 149.145655,22.1188553 C149.077043,22.1188553 149.00843,22.1188553 148.939817,22.084549 L148.905511,22.084549 C148.528141,22.0502426 148.116466,21.98163 147.739096,21.878711 C147.636177,21.8444047 147.533258,21.7414857 147.498952,21.6385668 C147.533258,21.6385668 147.498952,21.6385668 147.498952,21.6385668 L147.224501,21.5699541 C147.361726,20.5750707 147.293114,19.5458811 147.087276,18.5509977 C146.847132,17.5561143 146.435456,16.5955373 145.886555,15.7378792 L146.092392,15.5320412 L146.092392,15.4977349 C146.092392,15.3948159 146.126699,15.2575906 146.195311,15.188978 C146.504068,14.9145274 146.812825,14.7086895 147.155889,14.5028515 C147.224501,14.4685452 147.293114,14.4342389 147.361726,14.3999326 C147.498952,14.3313199 147.601871,14.2627073 147.739096,14.1940946 C147.773402,14.1597883 147.807709,14.1597883 147.842015,14.125482 C147.876321,14.0911757 147.842015,14.0911757 147.842015,14.0568693 C148.150772,13.8167251 148.219385,13.4050492 147.97924,13.0962923 C147.876321,12.959067 147.670483,12.856148 147.498952,12.856148 C147.32742,12.856148 147.155889,12.9247607 147.018663,13.0276796 L146.984357,13.061986 C146.950051,13.0962923 146.915744,13.1305986 146.881438,13.1305986 C146.778519,13.2335176 146.6756,13.3364365 146.606987,13.4393555 C146.572681,13.5079682 146.504068,13.5422745 146.469762,13.5765808 C146.229618,13.8510314 145.920861,14.125482 145.612104,14.3313199 C145.543491,14.3656262 145.474879,14.3999326 145.406266,14.3999326 C145.37196,14.3999326 145.303347,14.3999326 145.269041,14.3656262 L145.234734,14.3656262 L144.960284,14.5371579 C144.685833,14.2627073 144.377076,13.9882567 144.102626,13.7138061 C142.833292,12.7189227 141.255201,12.1014089 139.642804,11.9298773 L139.608497,11.6554267 L139.608497,11.689733 C139.505578,11.6211204 139.471272,11.5182014 139.436966,11.4152824 C139.436966,11.0379129 139.436966,10.6605433 139.505578,10.2488675 L139.505578,10.2145611 C139.505578,10.1459485 139.539885,10.0773358 139.539885,10.0087232 C139.574191,9.8714979 139.574191,9.73427261 139.608497,9.59704731 L139.608497,9.39120937 C139.642804,9.04814614 139.368353,8.70508291 139.02529,8.67077659 C138.819452,8.63647026 138.613614,8.73938923 138.442082,8.91092085 C138.304857,9.04814614 138.236244,9.21967776 138.236244,9.39120937 L138.236244,9.56274099 C138.236244,9.69996628 138.270551,9.83719158 138.304857,9.97441687 C138.339163,10.0430295 138.339163,10.1116422 138.339163,10.1802548 L138.339163,10.2145611 C138.407776,10.5919307 138.407776,10.9693002 138.407776,11.3809761 C138.37347,11.4838951 138.339163,11.5868141 138.236244,11.6554267 L138.236244,11.7240394 L138.201938,11.9984899 C137.824569,12.0327963 137.447199,12.1014089 137.035523,12.1700216 C135.423126,12.5130848 133.947954,13.3707429 132.815845,14.5714642 L132.610007,14.4342389 L132.575701,14.4342389 C132.541395,14.4342389 132.507088,14.4685452 132.438476,14.4685452 C132.369863,14.4685452 132.301251,14.4342389 132.232638,14.3999326 C131.923881,14.1597883 131.615124,13.8853377 131.37498,13.6108871 C131.340674,13.5422745 131.272061,13.5079682 131.237755,13.4736618 C131.134836,13.3707429 131.066223,13.2678239 130.963304,13.1649049 C130.928998,13.1305986 130.894691,13.1305986 130.860385,13.0962923 C130.826079,13.061986 130.826079,13.061986 130.826079,13.061986 C130.688853,12.959067 130.517322,12.8904543 130.34579,12.8904543 C130.139952,12.8904543 129.968421,12.959067 129.865502,13.1305986 C129.659664,13.4393555 129.728276,13.8510314 130.002727,14.0911757 C130.037033,14.0911757 130.037033,14.125482 130.037033,14.125482 C130.037033,14.125482 130.105646,14.1940946 130.139952,14.1940946 C130.242871,14.2627073 130.380096,14.3313199 130.517322,14.3999326 C130.585934,14.4342389 130.654547,14.4685452 130.72316,14.5028515 C131.066223,14.7086895 131.409286,14.9145274 131.683737,15.188978 C131.752349,15.2575906 131.820962,15.3948159 131.786656,15.4977349 L131.786656,15.4634286 L131.992494,15.6692665 C131.958187,15.7378792 131.923881,15.7721855 131.889575,15.8407981 C130.826079,17.521808 130.380096,19.5115747 130.688853,21.4670352 L130.414403,21.5356478 C130.414403,21.5699541 130.380096,21.5699541 130.380096,21.5699541 C130.34579,21.6728731 130.242871,21.7414857 130.139952,21.8100984 C129.762583,21.9130174 129.385213,21.98163 128.973537,22.0159363 C128.904925,22.0159363 128.836312,22.0159363 128.767699,22.0502426 C128.630474,22.0502426 128.493249,22.084549 128.356023,22.084549 C128.321717,22.084549 128.287411,22.1188553 128.218798,22.1188553 C128.184492,22.1188553 128.184492,22.1188553 128.150185,22.1531616 C127.772816,22.2217743 127.532672,22.5648375 127.601284,22.9422071 C127.669897,23.250964 127.978654,23.4568019 128.287411,23.4224956 C128.356023,23.4224956 128.39033,23.4224956 128.458942,23.3881893 C128.493249,23.3881893 128.493249,23.3881893 128.493249,23.3538829 C128.493249,23.3195766 128.596168,23.3538829 128.630474,23.3538829 C128.767699,23.3195766 128.904925,23.250964 129.007844,23.2166576 C129.076456,23.1823513 129.145069,23.148045 129.213681,23.148045 L129.247988,23.148045 C129.625357,23.0108197 129.968421,22.9079007 130.380096,22.8392881 L130.414403,22.8392881 C130.517322,22.8392881 130.620241,22.8735944 130.688853,22.9422071 C130.72316,22.9422071 130.72316,22.9765134 130.72316,22.9765134 L131.031917,22.9422071 C131.546511,24.5202979 132.507088,25.9268572 133.845035,26.9560469 C134.153792,27.1961911 134.428243,27.4020291 134.771306,27.5735607 L134.599774,27.813705 C134.599774,27.8480113 134.634081,27.8480113 134.634081,27.8480113 C134.702693,27.9509302 134.702693,28.0881555 134.668387,28.1910745 C134.531162,28.5341377 134.325324,28.877201 134.119486,29.1859579 L134.119486,29.2202642 C134.085179,29.2888768 134.050873,29.3231832 133.98226,29.3917958 C133.913648,29.4604085 133.845035,29.5976338 133.742116,29.7348591 C133.70781,29.7691654 133.70781,29.8034717 133.673503,29.837778 C133.673503,29.837778 133.673503,29.8720843 133.639197,29.8720843 C133.467666,30.2151476 133.604891,30.6268235 133.913648,30.7983551 C133.98226,30.8326614 134.085179,30.8669677 134.153792,30.8669677 C134.428243,30.8669677 134.668387,30.6954361 134.805612,30.4552918 C134.805612,30.4552918 134.805612,30.4209855 134.839918,30.4209855 C134.839918,30.3866792 134.874225,30.3523729 134.908531,30.3180665 C134.942837,30.1808413 135.01145,30.0779223 135.045756,29.940697 L135.114369,29.7348591 C135.217288,29.3574895 135.38882,29.0144263 135.560351,28.671363 C135.628964,28.5684441 135.731883,28.4998314 135.834802,28.4655251 C135.869108,28.4655251 135.869108,28.4655251 135.869108,28.4312188 L136.006333,28.1567682 C136.966911,28.5341377 137.961794,28.7056694 138.990984,28.7056694 C139.608497,28.7056694 140.226011,28.6370567 140.843525,28.4655251 C141.220895,28.3969124 141.598264,28.2596872 141.941327,28.1567682 L142.078553,28.3969124 C142.112859,28.3969124 142.112859,28.3969124 142.112859,28.4312188 C142.215778,28.4655251 142.318697,28.5341377 142.38731,28.6370567 C142.558841,28.9801199 142.730373,29.3231832 142.833292,29.7005527 L142.833292,29.7348591 L142.901904,29.940697 C142.936211,30.0779223 142.970517,30.2151476 143.03913,30.3180665 C143.073436,30.3523729 143.073436,30.3866792 143.107742,30.4209855 C143.107742,30.4209855 143.107742,30.4552918 143.142049,30.4552918 C143.279274,30.6954361 143.519418,30.8669677 143.793869,30.8669677 C143.896788,30.8669677 143.9654,30.8326614 144.068319,30.7983551 C144.205545,30.7297424 144.34277,30.5925171 144.377076,30.4209855 C144.411383,30.2494539 144.411383,30.0779223 144.34277,29.9063907 C144.34277,29.8720843 144.308464,29.8720843 144.308464,29.8720843 C144.308464,29.837778 144.274157,29.8034717 144.239851,29.7691654 C144.171238,29.6319401 144.102626,29.5290211 143.999707,29.4261021 C143.9654,29.3574895 143.931094,29.3231832 143.862481,29.2545705 L143.862481,29.1859579 C143.622337,28.877201 143.450806,28.5341377 143.31358,28.1910745 C143.279274,28.0881555 143.279274,27.9509302 143.347887,27.8480113 C143.347887,27.813705 143.382193,27.813705 143.382193,27.813705 L143.279274,27.5392544 C145.028896,26.4757583 146.366843,24.8290548 146.984357,22.8735944 L147.258807,22.9079007 C147.293114,22.9079007 147.293114,22.8735944 147.293114,22.8735944 C147.361726,22.8049818 147.464645,22.7706754 147.567564,22.7706754 L147.601871,22.7706754 C147.97924,22.8392881 148.35661,22.9422071 148.699673,23.0794323 L148.733979,23.0794323 C148.802592,23.1137387 148.871205,23.148045 148.939817,23.148045 C149.077043,23.2166576 149.179962,23.2852703 149.317187,23.3195766 C149.351493,23.3195766 149.3858,23.3538829 149.454412,23.3538829 C149.488718,23.3538829 149.488718,23.3538829 149.523025,23.3881893 C149.591637,23.4224956 149.625944,23.4224956 149.694556,23.4224956 C150.003313,23.4224956 150.277764,23.2166576 150.380683,22.9422071 C150.346377,22.5648375 150.071926,22.2903869 149.763169,22.2217743 Z M139.848642,21.1582782 L138.922371,21.6042604 L137.9961,21.1582782 L137.755956,20.1633949 L138.407776,19.3400431 L139.436966,19.3400431 L140.088786,20.1633949 L139.848642,21.1582782 Z M145.440572,18.9283672 C145.612104,19.6488 145.64641,20.3692328 145.577798,21.0896656 L142.318697,20.1633949 C142.00994,20.0947822 141.838408,19.7860253 141.907021,19.4772684 C141.941327,19.3743494 141.975634,19.3057368 142.044246,19.2371241 L144.617221,16.9042942 C144.99459,17.521808 145.269041,18.2079344 145.440572,18.9283672 Z M143.588031,15.6349602 L140.774912,17.6247269 C140.534768,17.7619522 140.191705,17.7276459 140.020173,17.4875017 C139.951561,17.418889 139.917254,17.3502764 139.917254,17.2473574 L139.711416,13.7824187 C141.220895,13.9539504 142.558841,14.6057705 143.588031,15.6349602 Z M137.378586,13.8853377 L138.064713,13.7481124 L137.893181,17.1787447 C137.893181,17.4875017 137.618731,17.7276459 137.309974,17.7276459 C137.207055,17.7276459 137.138442,17.6933396 137.035523,17.6590333 L134.188098,15.6349602 C135.080063,14.7773021 136.177865,14.1597883 137.378586,13.8853377 Z M133.193215,16.9042942 L135.731883,19.1685115 C135.972027,19.3743494 136.006333,19.7174127 135.800496,19.9575569 C135.731883,20.0604759 135.66327,20.0947822 135.526045,20.1290885 L132.198332,21.0896656 C132.095413,19.6488 132.438476,18.1736281 133.193215,16.9042942 Z M132.610007,22.7020628 L136.006333,22.1188553 C136.280784,22.1188553 136.555235,22.2903869 136.589541,22.5648375 C136.623847,22.6677565 136.623847,22.8049818 136.555235,22.9079007 L135.251594,26.0640825 C134.050873,25.275037 133.090296,24.0743157 132.610007,22.7020628 Z M140.397543,26.9560469 C139.917254,27.0589658 139.436966,27.1275785 138.922371,27.1275785 C138.201938,27.1275785 137.447199,26.9903532 136.761073,26.7845153 L138.442082,23.7312525 C138.613614,23.5254145 138.888065,23.4568019 139.128209,23.5940272 C139.231128,23.6626398 139.29974,23.7312525 139.402659,23.8341715 L141.049363,26.8188216 C140.843525,26.8531279 140.637687,26.8874342 140.397543,26.9560469 Z M144.582914,23.9713967 C144.068319,24.7947485 143.347887,25.5151813 142.524535,26.0297761 L141.186588,22.8049818 C141.117976,22.5305312 141.255201,22.2560806 141.495345,22.1531616 C141.598264,22.1188553 141.701183,22.084549 141.804102,22.084549 L145.234734,22.6677565 C145.063203,23.148045 144.857365,23.5940272 144.582914,23.9713967 Z" id="Combined-Shape" fill="#FFFFFF" fill-rule="nonzero"></path>
        </g>
        <path d="M1443,387 L1443,794" id="Path-7" stroke="#FFFFFF" stroke-width="2" stroke-dasharray="5"></path>
        <polygon id="Triangle" fill="#FFFFFF" transform="translate(1443.500000, 796.000000) rotate(180.000000) translate(-1443.500000, -796.000000) " points="1443.5 790 1451 802 1436 802"></polygon>
        <g id="Group-9" transform="translate(376.000000, 854.000000)">
            <g id="Group-6">
                <g id="Group-3" transform="translate(0.000000, 19.000000)">
                    <g id="Rectangle-5">
                        <use fill-opacity="0.400000006" fill="#3B7759" fill-rule="evenodd" xlink:href="#path-3"></use>
                        <rect stroke-opacity="0.594372736" stroke="#FFFFFF" stroke-width="2" x="1" y="1" width="532" height="394" rx="8"></rect>
                    </g>
                </g>
                <g id="Group" transform="translate(40.000000, 0.000000)">
                    <rect id="Rectangle-2" fill="#1A1A1A" x="0" y="0" width="123" height="40" rx="3"></rect>
                    <text id="Controller" font-family="GTAmerica-Regular, GT America" font-size="18" font-weight="normal" fill="#FFFFFF">
                        <tspan x="20.631" y="27">Controller</tspan>
                    </text>
                </g>
            </g>
            <g id="Group-8" transform="translate(24.000000, 55.000000)">
                <g id="Group-6" transform="translate(1.000000, 0.000000)">
                    <g id="Group">
                        <g id="Rectangle-5">
                            <use fill-opacity="0.200000018" fill="#8B294A" fill-rule="evenodd" xlink:href="#path-4"></use>
                            <rect stroke-opacity="0.594372736" stroke="#FFFFFF" stroke-width="2" x="1" y="20" width="482" height="218" rx="8"></rect>
                        </g>
                        <rect id="Rectangle-2" fill="#1A1A1A" x="40" y="0" width="289" height="40" rx="3"></rect>
                        <text id="Core-Compliance-Comp" font-family="GTAmerica-Regular, GT America" font-size="18" font-weight="normal" fill="#FFFFFF">
                            <tspan x="60" y="27">Core Compliance Components</tspan>
                        </text>
                    </g>
                </g>
                <g id="Group-7" transform="translate(39.000000, 60.000000)">
                    <rect id="Rectangle-3" stroke="#FFFFFF" stroke-width="2" x="1" y="1" width="121" height="70" rx="8"></rect>
                    <text id="Antivirus" font-family="GTAmerica-Regular, GT America" font-size="18" font-weight="normal" fill="#FFFFFF">
                        <tspan x="25.721" y="41">Antivirus</tspan>
                    </text>
                </g>
                <g id="Group-7" transform="translate(182.000000, 60.000000)">
                    <rect id="Rectangle-3" stroke="#FFFFFF" stroke-width="2" x="1" y="1" width="121" height="70" rx="8"></rect>
                    <text id="IDS" font-family="GTAmerica-Regular, GT America" font-size="18" font-weight="normal" fill="#FFFFFF">
                        <tspan x="47.384" y="41">IDS</tspan>
                    </text>
                </g>
                <g id="Group-7" transform="translate(325.000000, 60.000000)">
                    <rect id="Rectangle-3" stroke="#FFFFFF" stroke-width="2" x="1" y="1" width="121" height="70" rx="8"></rect>
                    <text id="Vulnerability-Scanni" font-family="GTAmerica-Regular, GT America" font-size="18" font-weight="normal" fill="#FFFFFF">
                        <tspan x="10.754" y="33">Vulnerability </tspan>
                        <tspan x="24.146" y="55">Scanning</tspan>
                    </text>
                </g>
                <g id="Group-7" transform="translate(39.000000, 142.000000)">
                    <rect id="Rectangle-3" stroke="#FFFFFF" stroke-width="2" x="1" y="1" width="121" height="70" rx="8"></rect>
                    <text id="State-(Salt)" font-family="GTAmerica-Regular, GT America" font-size="18" font-weight="normal" fill="#FFFFFF">
                        <tspan x="16.577" y="41">State (Salt)</tspan>
                    </text>
                </g>
                <g id="Group-7" transform="translate(1.000000, 263.000000)">
                    <rect id="Rectangle-3" stroke="#FFFFFF" stroke-width="2" x="1" y="1" width="121" height="70" rx="8"></rect>
                    <text id="K8s-apiserver" font-family="GTAmerica-Regular, GT America" font-size="18" font-weight="normal" fill="#FFFFFF">
                        <tspan x="46.34" y="32">K8s </tspan>
                        <tspan x="24.749" y="54">apiserver</tspan>
                    </text>
                </g>
                <g id="Group-7" transform="translate(144.000000, 263.000000)">
                    <rect id="Rectangle-3" stroke="#FFFFFF" stroke-width="2" x="1" y="1" width="121" height="70" rx="8"></rect>
                    <text id="etcd" font-family="GTAmerica-Regular, GT America" font-size="18" font-weight="normal" fill="#FFFFFF">
                        <tspan x="44.009" y="42">etcd</tspan>
                    </text>
                </g>
                <g id="Group-7" transform="translate(287.000000, 263.000000)">
                    <rect id="Rectangle-3" stroke="#FFFFFF" stroke-width="2" x="1" y="1" width="121" height="70" rx="8"></rect>
                    <text id="Scheduler" font-family="GTAmerica-Regular, GT America" font-size="18" font-weight="normal" fill="#FFFFFF">
                        <tspan x="20.744" y="42">Scheduler</tspan>
                    </text>
                </g>
                <g id="Group-7" transform="translate(0.000000, 387.000000)">
                    <rect id="Rectangle-3" stroke="#FFFFFF" stroke-width="2" x="1" y="1" width="121" height="70" rx="8"></rect>
                    <text id="PHI-Backups" font-family="GTAmerica-Regular, GT America" font-size="18" font-weight="normal" fill="#FFFFFF">
                        <tspan x="47.096" y="31">PHI </tspan>
                        <tspan x="26.81" y="53">Backups</tspan>
                    </text>
                </g>
                <g id="Group-7" transform="translate(143.000000, 387.000000)">
                    <use id="Rectangle-3" stroke="#FFFFFF" mask="url(#mask-6)" stroke-width="4" stroke-dasharray="3" xlink:href="#path-5"></use>
                    <text id="PHI-Backups" font-family="GTAmerica-Regular, GT America" font-size="18" font-weight="normal" fill="#FFFFFF">
                        <tspan x="47.096" y="31">PHI </tspan>
                        <tspan x="26.81" y="53">Backups</tspan>
                    </text>
                </g>
                <g id="Group-7" transform="translate(182.000000, 142.000000)">
                    <rect id="Rectangle-3" stroke="#FFFFFF" stroke-width="2" x="1" y="1" width="121" height="70" rx="8"></rect>
                    <text id="Logging" font-family="GTAmerica-Regular, GT America" font-size="18" font-weight="normal" fill="#FFFFFF">
                        <tspan x="30.761" y="41">Logging</tspan>
                    </text>
                </g>
                <g id="Group-7" transform="translate(325.000000, 142.000000)">
                    <rect id="Rectangle-3" stroke="#FFFFFF" stroke-width="2" x="1" y="1" width="121" height="70" rx="8"></rect>
                    <text id="Monitoring" font-family="GTAmerica-Regular, GT America" font-size="18" font-weight="normal" fill="#FFFFFF">
                        <tspan x="17.711" y="41">Monitoring</tspan>
                    </text>
                </g>
            </g>
        </g>
        <g id="Group-9" transform="translate(934.000000, 854.000000)">
            <g id="Group-6">
                <g id="Group-3" transform="translate(0.000000, 20.000000)">
                    <g id="Rectangle-5">
                        <use fill-opacity="0.400000006" fill="#3B7759" fill-rule="evenodd" xlink:href="#path-7"></use>
                        <rect stroke-opacity="0.518257473" stroke="#FFFFFF" stroke-width="2" x="1" y="1" width="532" height="393" rx="8"></rect>
                    </g>
                </g>
                <g id="Group" transform="translate(40.000000, 0.000000)">
                    <rect id="Rectangle-2" fill="#1A1A1A" x="0" y="0" width="106" height="40" rx="3"></rect>
                    <text id="Worker" font-family="GTAmerica-Regular, GT America" font-size="20" font-weight="normal" fill="#FFFFFF">
                        <tspan x="20.37" y="27">Worker</tspan>
                    </text>
                </g>
            </g>
            <g id="Group-8" transform="translate(25.000000, 54.000000)">
                <g id="Group-7" transform="translate(0.000000, 264.000000)">
                    <rect id="Rectangle-3" stroke="#FFFFFF" stroke-width="2" x="1" y="1" width="121" height="70" rx="8"></rect>
                    <text id="Proxy" font-family="GTAmerica-Regular, GT America" font-size="18" font-weight="normal" fill="#FFFFFF">
                        <tspan x="39.41" y="42">Proxy</tspan>
                    </text>
                </g>
                <g id="Group-7" transform="translate(133.000000, 264.000000)">
                    <rect id="Rectangle-3" stroke="#FFFFFF" stroke-width="2" x="1" y="1" width="121" height="70" rx="8"></rect>
                    <text id="Kubelet" font-family="GTAmerica-Regular, GT America" font-size="18" font-weight="normal" fill="#FFFFFF">
                        <tspan x="30.302" y="42">Kubelet</tspan>
                    </text>
                </g>
                <g id="Group-10">
                    <g id="Group-6">
                        <g id="Group">
                            <g id="Rectangle-5">
                                <use fill-opacity="0.200000018" fill="#8B294A" fill-rule="evenodd" xlink:href="#path-8"></use>
                                <rect stroke-opacity="0.518257473" stroke="#FFFFFF" stroke-width="2" x="1" y="21" width="483" height="217" rx="8"></rect>
                            </g>
                            <rect id="Rectangle-2" fill="#1A1A1A" x="40" y="0" width="289" height="40" rx="3"></rect>
                            <text id="Core-Compliance-Comp" font-family="GTAmerica-Regular, GT America" font-size="18" font-weight="normal" fill="#FFFFFF">
                                <tspan x="60" y="27">Core Compliance Components</tspan>
                            </text>
                        </g>
                    </g>
                    <g id="Group-7" transform="translate(38.000000, 60.000000)">
                        <rect id="Rectangle-3" stroke="#FFFFFF" stroke-width="2" x="1" y="1" width="121" height="70" rx="8"></rect>
                        <text id="Antivirus" font-family="GTAmerica-Regular, GT America" font-size="18" font-weight="normal" fill="#FFFFFF">
                            <tspan x="25.721" y="41">Antivirus</tspan>
                        </text>
                    </g>
                    <g id="Group-7" transform="translate(181.000000, 60.000000)">
                        <rect id="Rectangle-3" stroke="#FFFFFF" stroke-width="2" x="1" y="1" width="121" height="70" rx="8"></rect>
                        <text id="IDS" font-family="GTAmerica-Regular, GT America" font-size="18" font-weight="normal" fill="#FFFFFF">
                            <tspan x="47.384" y="41">IDS</tspan>
                        </text>
                    </g>
                    <g id="Group-7" transform="translate(324.000000, 60.000000)">
                        <rect id="Rectangle-3" stroke="#FFFFFF" stroke-width="2" x="1" y="1" width="121" height="70" rx="8"></rect>
                        <text id="Vulnerability-Scanni" font-family="GTAmerica-Regular, GT America" font-size="18" font-weight="normal" fill="#FFFFFF">
                            <tspan x="10.754" y="33">Vulnerability </tspan>
                            <tspan x="24.146" y="55">Scanning</tspan>
                        </text>
                    </g>
                    <g id="Group-7" transform="translate(38.000000, 142.000000)">
                        <rect id="Rectangle-3" stroke="#FFFFFF" stroke-width="2" x="1" y="1" width="121" height="70" rx="8"></rect>
                        <text id="State-(Salt)" font-family="GTAmerica-Regular, GT America" font-size="18" font-weight="normal" fill="#FFFFFF">
                            <tspan x="16.577" y="41">State (Salt)</tspan>
                        </text>
                    </g>
                    <g id="Group-7" transform="translate(181.000000, 142.000000)">
                        <rect id="Rectangle-3" stroke="#FFFFFF" stroke-width="2" x="1" y="1" width="121" height="70" rx="8"></rect>
                        <text id="Logging" font-family="GTAmerica-Regular, GT America" font-size="18" font-weight="normal" fill="#FFFFFF">
                            <tspan x="30.761" y="41">Logging</tspan>
                        </text>
                    </g>
                    <g id="Group-7" transform="translate(324.000000, 142.000000)">
                        <rect id="Rectangle-3" stroke="#FFFFFF" stroke-width="2" x="1" y="1" width="121" height="70" rx="8"></rect>
                        <text id="Monitoring" font-family="GTAmerica-Regular, GT America" font-size="18" font-weight="normal" fill="#FFFFFF">
                            <tspan x="17.711" y="41">Monitoring</tspan>
                        </text>
                    </g>
                </g>
            </g>
        </g>
        <g id="_arrow" transform="translate(461.500000, 1269.500000) rotate(90.000000) translate(-461.500000, -1269.500000) translate(440.000000, 1262.000000)">
            <path d="M0.91015625,7.28515625 L31.9601555,7.28515625" id="Path-4" stroke="#4A90E2" stroke-width="2"></path>
            <polygon id="Triangle" fill="#4A90E2" transform="translate(37.000000, 7.500000) rotate(90.000000) translate(-37.000000, -7.500000) " points="37 1.5 44.5 13.5 29.5 13.5"></polygon>
        </g>
    </g>
</svg>