<svg xmlns="http://www.w3.org/2000/svg" width="2499" height="1846" fill="none" viewBox="0 0 2499 1846"><g opacity=".3"><path fill="url(#paint0_linear)" d="M1299.3 261.5L637.2 650v1169.4l662.1-388.5V261.5z" opacity=".2"/><path fill="url(#paint1_linear)" d="M1898.2 659.4l-424.6 249.2v749.9l424.6-249.2V659.4z" opacity=".2"/><path fill="url(#paint2_linear)" d="M542.8 68.8L0 387.3v958.6l542.8-318.5V68.8z" opacity=".2"/><path fill="url(#paint3_linear)" d="M1580.7 270.7l-217.4 127.6v384l217.4-127.6v-384z" opacity=".2"/><path fill="url(#paint4_linear)" d="M1765.9 202.2l-98 57.5v173l98-57.4v-173z" opacity=".2"/><path fill="url(#paint5_linear)" d="M1850.2 782.3l-106 62.2v361.9l106-62.2V782.3z" opacity=".2"/><path fill="url(#paint6_linear)" d="M1699.9 1000.6l-64 37.6v113l64-37.6v-113z" opacity=".2"/><path fill="url(#paint7_linear)" d="M1538.5 1101.7L1388 1190v266l150.5-88.4v-266z" opacity=".2"/><path fill="url(#paint8_linear)" d="M1913.7 249.6L1728 358.5v327.7l185.6-108.9V249.6z" opacity=".2"/><path fill="url(#paint9_linear)" d="M1834 544l-190 111.5V1390l190-111.4V544z" opacity=".2"/><path fill="url(#paint10_linear)" d="M924.4 270.7l-185.6 109v327.7l185.6-109V270.8z" opacity=".2"/><path fill="url(#paint11_linear)" d="M600.2 558.9L365.4 696.6v414.7l234.8-137.8V559z" opacity=".2"/><path fill="url(#paint12_linear)" d="M697.3 202.2l-150.5 88.3v265.8L697.3 468V202.2z" opacity=".2"/><path fill="url(#paint13_linear)" d="M508.5 407.4L257.2 555v444l251.3-147.6V407.4z" opacity=".2"/><path fill="url(#paint14_linear)" d="M422 967l-91.4 53.7V1182l91.4-53.6V967.1z" opacity=".2"/><path fill="url(#paint15_linear)" d="M785.7 633.4l-116.3 68.2V907l116.3-68.2V633.4z" opacity=".2"/><path fill="url(#paint16_linear)" d="M1303.5 526.5l-106 62.2v187l106-62V526.4z" opacity=".2"/><path fill="url(#paint17_linear)" d="M1522.2 729.7l-182.5 107v322.2l182.5-107V729.7z" opacity=".2"/><path fill="url(#paint18_linear)" d="M1162.8 941l-246.3 144.4v435l246.3-144.5V941z" opacity=".2"/><path fill="url(#paint19_linear)" d="M482.8 1182l-161.5 94.8v285.4l161.5-94.8V1182z" opacity=".2"/><path fill="url(#paint20_linear)" d="M727.6 829.5l-180.8 106V1528l180.8-106V829.5z" opacity=".2"/><path fill="url(#paint21_linear)" d="M1421.1 296.6l-115.7 67.9v204.4l115.7-68V296.7z" opacity=".2"/><path fill="url(#paint22_linear)" d="M943.8 709.8L827.5 778v631l116.3-68.2v-631z" opacity=".2"/><path fill="url(#paint23_linear)" d="M2008.8 903.5l141.6 83v250.1l-141.6-83V903.4z" opacity=".2"/><path fill="url(#paint24_linear)" d="M1923.3 651.1l87.3 51.3v154.1l-87.3-51.2V651.1z" opacity=".2"/><path fill="url(#paint25_linear)" d="M1253 361.2L994.1 512.9v1165L1253 1526V361z" opacity=".2"/><path fill="url(#paint26_linear)" d="M2280 432.7l105.9 62.2v187l-106-62V432.6z" opacity=".2"/><path fill="url(#paint27_linear)" d="M1980.9 451.7l185.6 109v327.7l-185.6-109V451.8z" opacity=".2"/><path fill="url(#paint28_linear)" d="M2029.5 0l185.6 108.9v327.7l-185.6-108.9V0z" opacity=".2"/><path fill="url(#paint29_linear)" d="M2313.4 181.1l185.6 109v327.7l-185.6-109V181.2z" opacity=".2"/><path fill="url(#paint30_linear)" d="M1872.2 107l114.8 67.4v202.8l-114.8-67.4V107z" opacity=".2"/><path fill="url(#paint31_linear)" d="M2165.9 451.8l159.4 93.5V827L2166 733.4V451.8z" opacity=".2"/><path fill="url(#paint32_linear)" d="M2338.3 770.2l143.5 84.2V1108l-143.5-84.2V770.2z" opacity=".2"/><path fill="url(#paint33_linear)" d="M806 1247l-157 92.1v277.2l157-92V1247z" opacity=".2"/><path fill="url(#paint34_linear)" d="M1882.5 1107.9l185.5 108.8V1846l-185.5-108.9V1108z" opacity=".2"/></g><defs><linearGradient id="paint0_linear" x1="820" x2="1358.8" y1="371.2" y2="1641.2" gradientUnits="userSpaceOnUse"><stop stop-opacity=".9"/><stop offset="1" stop-opacity="0"/></linearGradient><linearGradient id="paint1_linear" x1="1590.8" x2="1936.4" y1="729.7" y2="1544.2" gradientUnits="userSpaceOnUse"><stop stop-opacity=".9"/><stop offset="1" stop-opacity="0"/></linearGradient><linearGradient id="paint2_linear" x1="149.8" x2="591.6" y1="158.7" y2="1199.8" gradientUnits="userSpaceOnUse"><stop stop-opacity=".9"/><stop offset="1" stop-opacity="0"/></linearGradient><linearGradient id="paint3_linear" x1="1423.3" x2="1600.2" y1="306.7" y2="723.8" gradientUnits="userSpaceOnUse"><stop stop-color="#fff" stop-opacity=".9"/><stop offset="1" stop-color="#fff" stop-opacity="0"/></linearGradient><linearGradient id="paint4_linear" x1="1695" x2="1774.7" y1="218.5" y2="406.4" gradientUnits="userSpaceOnUse"><stop stop-color="#fff" stop-opacity=".9"/><stop offset="1" stop-color="#fff" stop-opacity="0"/></linearGradient><linearGradient id="paint5_linear" x1="1773.5" x2="1850.2" y1="799.8" y2="1125.4" gradientUnits="userSpaceOnUse"><stop stop-color="#fff" stop-opacity=".9"/><stop offset="1" stop-color="#fff" stop-opacity="0"/></linearGradient><linearGradient id="paint6_linear" x1="1653.6" x2="1705.6" y1="1011.2" y2="1133.9" gradientUnits="userSpaceOnUse"><stop stop-color="#fff" stop-opacity=".9"/><stop offset="1" stop-color="#fff" stop-opacity="0"/></linearGradient><linearGradient id="paint7_linear" x1="1429.6" x2="1552.1" y1="1126.6" y2="1415.4" gradientUnits="userSpaceOnUse"><stop stop-color="#fff" stop-opacity=".9"/><stop offset="1" stop-color="#fff" stop-opacity="0"/></linearGradient><linearGradient id="paint8_linear" x1="1779.3" x2="1930.4" y1="280.3" y2="636.3" gradientUnits="userSpaceOnUse"><stop stop-color="#fff" stop-opacity=".9"/><stop offset="1" stop-color="#fff" stop-opacity="0"/></linearGradient><linearGradient id="paint9_linear" x1="1696.5" x2="1851" y1="575.5" y2="939.7" gradientUnits="userSpaceOnUse"><stop stop-color="#fff" stop-opacity=".9"/><stop offset="1" stop-color="#fff" stop-opacity="0"/></linearGradient><linearGradient id="paint10_linear" x1="790" x2="941.1" y1="301.5" y2="657.4" gradientUnits="userSpaceOnUse"><stop stop-color="#fff" stop-opacity=".9"/><stop offset="1" stop-color="#fff" stop-opacity="0"/></linearGradient><linearGradient id="paint11_linear" x1="430.2" x2="621.3" y1="597.7" y2="1048.1" gradientUnits="userSpaceOnUse"><stop stop-color="#fff" stop-opacity=".9"/><stop offset="1" stop-color="#fff" stop-opacity="0"/></linearGradient><linearGradient id="paint12_linear" x1="588.4" x2="710.8" y1="227.2" y2="515.8" gradientUnits="userSpaceOnUse"><stop stop-color="#fff" stop-opacity=".9"/><stop offset="1" stop-color="#fff" stop-opacity="0"/></linearGradient><linearGradient id="paint13_linear" x1="326.6" x2="531.1" y1="449" y2="931.2" gradientUnits="userSpaceOnUse"><stop stop-color="#fff" stop-opacity=".9"/><stop offset="1" stop-color="#fff" stop-opacity="0"/></linearGradient><linearGradient id="paint14_linear" x1="355.8" x2="430.2" y1="982.2" y2="1157.5" gradientUnits="userSpaceOnUse"><stop stop-color="#fff" stop-opacity=".9"/><stop offset="1" stop-color="#fff" stop-opacity="0"/></linearGradient><linearGradient id="paint15_linear" x1="701.5" x2="796.2" y1="652.7" y2="875.6" gradientUnits="userSpaceOnUse"><stop stop-color="#fff" stop-opacity=".9"/><stop offset="1" stop-color="#fff" stop-opacity="0"/></linearGradient><linearGradient id="paint16_linear" x1="1226.8" x2="1313" y1="544.1" y2="747.3" gradientUnits="userSpaceOnUse"><stop stop-color="#fff" stop-opacity=".9"/><stop offset="1" stop-color="#fff" stop-opacity="0"/></linearGradient><linearGradient id="paint17_linear" x1="1390.1" x2="1538.6" y1="759.9" y2="1109.8" gradientUnits="userSpaceOnUse"><stop stop-color="#fff" stop-opacity=".9"/><stop offset="1" stop-color="#fff" stop-opacity="0"/></linearGradient><linearGradient id="paint18_linear" x1="984.5" x2="1185" y1="981.7" y2="1454.1" gradientUnits="userSpaceOnUse"><stop stop-color="#fff" stop-opacity=".9"/><stop offset="1" stop-color="#fff" stop-opacity="0"/></linearGradient><linearGradient id="paint19_linear" x1="365.8" x2="497.3" y1="1208.8" y2="1518.7" gradientUnits="userSpaceOnUse"><stop stop-color="#fff" stop-opacity=".9"/><stop offset="1" stop-color="#fff" stop-opacity="0"/></linearGradient><linearGradient id="paint20_linear" x1="596.7" x2="675.8" y1="859.4" y2="1355" gradientUnits="userSpaceOnUse"><stop stop-color="#fff" stop-opacity=".9"/><stop offset="1" stop-color="#fff" stop-opacity="0"/></linearGradient><linearGradient id="paint21_linear" x1="1337.3" x2="1431.5" y1="315.8" y2="537.7" gradientUnits="userSpaceOnUse"><stop stop-color="#fff" stop-opacity=".9"/><stop offset="1" stop-color="#fff" stop-opacity="0"/></linearGradient><linearGradient id="paint22_linear" x1="859.6" x2="921" y1="729.1" y2="1325.1" gradientUnits="userSpaceOnUse"><stop stop-color="#fff" stop-opacity=".9"/><stop offset="1" stop-color="#fff" stop-opacity="0"/></linearGradient><linearGradient id="paint23_linear" x1="2111.3" x2="1996.1" y1="926.9" y2="1198.5" gradientUnits="userSpaceOnUse"><stop stop-color="#fff" stop-opacity=".9"/><stop offset="1" stop-color="#fff" stop-opacity="0"/></linearGradient><linearGradient id="paint24_linear" x1="1986.5" x2="1915.4" y1="665.6" y2="833" gradientUnits="userSpaceOnUse"><stop stop-color="#fff" stop-opacity=".9"/><stop offset="1" stop-color="#fff" stop-opacity="0"/></linearGradient><linearGradient id="paint25_linear" x1="1065.7" x2="1123.5" y1="404" y2="1324.8" gradientUnits="userSpaceOnUse"><stop stop-color="#fff" stop-opacity=".9"/><stop offset="1" stop-color="#fff" stop-opacity="0"/></linearGradient><linearGradient id="paint26_linear" x1="2356.7" x2="2270.4" y1="450.3" y2="653.5" gradientUnits="userSpaceOnUse"><stop stop-color="#fff" stop-opacity=".9"/><stop offset="1" stop-color="#fff" stop-opacity="0"/></linearGradient><linearGradient id="paint27_linear" x1="2115.3" x2="1964.2" y1="482.5" y2="838.4" gradientUnits="userSpaceOnUse"><stop stop-color="#fff" stop-opacity=".9"/><stop offset="1" stop-color="#fff" stop-opacity="0"/></linearGradient><linearGradient id="paint28_linear" x1="2163.9" x2="2012.8" y1="30.7" y2="386.7" gradientUnits="userSpaceOnUse"><stop stop-color="#fff" stop-opacity=".9"/><stop offset="1" stop-color="#fff" stop-opacity="0"/></linearGradient><linearGradient id="paint29_linear" x1="2447.8" x2="2296.7" y1="211.9" y2="567.8" gradientUnits="userSpaceOnUse"><stop stop-color="#fff" stop-opacity=".9"/><stop offset="1" stop-color="#fff" stop-opacity="0"/></linearGradient><linearGradient id="paint30_linear" x1="1955.3" x2="1861.8" y1="126" y2="346.3" gradientUnits="userSpaceOnUse"><stop stop-color="#fff" stop-opacity=".9"/><stop offset="1" stop-color="#fff" stop-opacity="0"/></linearGradient><linearGradient id="paint31_linear" x1="2281.3" x2="2151.5" y1="478.2" y2="784.1" gradientUnits="userSpaceOnUse"><stop stop-color="#fff" stop-opacity=".9"/><stop offset="1" stop-color="#fff" stop-opacity="0"/></linearGradient><linearGradient id="paint32_linear" x1="2442.2" x2="2325.4" y1="794" y2="1069.2" gradientUnits="userSpaceOnUse"><stop stop-color="#fff" stop-opacity=".9"/><stop offset="1" stop-color="#fff" stop-opacity="0"/></linearGradient><linearGradient id="paint33_linear" x1="692.4" x2="820.2" y1="1273" y2="1574.1" gradientUnits="userSpaceOnUse"><stop stop-color="#fff" stop-opacity=".9"/><stop offset="1" stop-color="#fff" stop-opacity="0"/></linearGradient><linearGradient id="paint34_linear" x1="2016.8" x2="2004.2" y1="1138.6" y2="1787.4" gradientUnits="userSpaceOnUse"><stop stop-color="#fff" stop-opacity=".9"/><stop offset="1" stop-color="#fff" stop-opacity="0"/></linearGradient></defs></svg>