<svg xmlns="http://www.w3.org/2000/svg" width="1735" height="597" fill="none"><style><![CDATA[.B{fill:#000}.C{font-family:GT America}.D{font-size:34.468px}.E{font-weight:500}.F{font-size:32.09px}.G{font-weight:bold}.H{color-interpolation-filters:sRGB}]]></style><g clip-path="url(#G)"><mask id="A" maskUnits="userSpaceOnUse" x="-17" y="43" width="1827" height="282"><path fill="url(#E)" d="M-17 43h1827v282H-17z"/></mask><g mask="url(#A)"><g filter="url(#C)" fill="#fff"><path d="M-52 70h1156v135H-52z"/><path d="M1052 70h1064v206H1052z"/><path d="M1201 101v88.554L1051.5 276 902 189.554V101h299z"/></g></g><mask id="B" maskUnits="userSpaceOnUse" x="-17" y="325" width="1827" height="282"><path fill="url(#F)" d="M-17 325h1827v282H-17z"/></mask><g mask="url(#B)"><g filter="url(#D)" fill="#fff"><path d="M-52 373h1156v146H-52z"/><path d="M1081 373h1035v181H1081z"/><path d="M1165 456v49.6l-83.5 48.4-83.5-48.4V456h167z"/></g></g><text xml:space="preserve" letter-spacing="0" class="B C D E"><tspan x="132" y="119.258">Policies</tspan></text><text xml:space="preserve" font-size="18" letter-spacing="0" class="B C"><tspan x="518" y="145.09">defines what must be done.</tspan></text><text xml:space="preserve" font-size="16" letter-spacing="3" class="B C"><tspan x="132" y="53.08">MATURITY MODEL STAGE</tspan><tspan x="1102" y="53.08">HOW DATICA SOLVES IT</tspan><tspan x="518" y="53.08">DIMENSION</tspan></text><text xml:space="preserve" font-size="18" letter-spacing="0" class="B C"><tspan x="518" y="459.09">proves it was done.</tspan><tspan x="514" y="296.09">is the act of implementing policies and procedures. </tspan><tspan x="514" y="319.09">Other monitoring tools focus strictly on security, or </tspan><tspan x="514" y="342.09">don’t address compliance at all.</tspan></text><text xml:space="preserve" letter-spacing="0.15em" class="B C F G"><tspan x="518" y="120.25">PRIVACY</tspan></text><text xml:space="preserve" letter-spacing=".001" class="B C D E"><tspan x="132" y="176.64">Procedures</tspan><tspan x="132" y="260.64">Implementations</tspan></text><text xml:space="preserve" letter-spacing="0.15em" class="B C F G"><tspan x="518" y="261.675">SECURITY</tspan></text><text xml:space="preserve" letter-spacing=".01" class="B C D E"><tspan x="132" y="424.64">Measurement</tspan></text><text xml:space="preserve" letter-spacing="0.15em" class="B C F G"><tspan x="518" y="425.25">COMPLIANCE</tspan></text><text xml:space="preserve" letter-spacing=".011" class="B C D E"><tspan x="132" y="485.768">Management</tspan></text><path fill="#a4fff9" d="M1249 461h137v33h-137z"/><path fill="#fdffa4" d="M1142 211h99v36h-99z"/><text xml:space="preserve" font-size="22" letter-spacing="0" class="B C"><tspan x="1102" y="120.11">Datica CCMS is the only product focused on </tspan><tspan x="1102" y="149.11">making it easy to understand how to secure </tspan><tspan x="1102" y="178.11">cloud environments specific to policies and </tspan><tspan x="1102" y="207.11">procedures audited against the HITRUST CSF </tspan><tspan x="1102" y="236.11">(the "Privacy" part).</tspan><tspan x="1102" y="425.11">It then continuously monitors the configuration </tspan><tspan x="1102" y="454.11">state on a daily basis to ensure continual </tspan><tspan x="1102" y="483.11">validation (the "Compliance" part).</tspan></text><g stroke-width="5"><path stroke="#fcff77" d="M689 127.372H518"/><path stroke="#89ffe3" d="M783 434.5H518"/></g></g><defs><filter id="C" x="-74" y="53" width="2212" height="250" filterUnits="userSpaceOnUse" class="H"><feFlood flood-opacity="0" result="A"/><feColorMatrix in="SourceAlpha" values="0 0 0 0 0 0 0 0 0 0 0 0 0 0 0 0 0 0 127 0"/><feOffset dy="5"/><feGaussianBlur stdDeviation="11"/><feColorMatrix values="0 0 0 0 0 0 0 0 0 0 0 0 0 0 0 0 0 0 0.11 0"/><feBlend in2="A"/><feBlend in="SourceGraphic"/></filter><filter id="D" x="-74" y="356" width="2212" height="225" filterUnits="userSpaceOnUse" class="H"><feFlood flood-opacity="0" result="A"/><feColorMatrix in="SourceAlpha" values="0 0 0 0 0 0 0 0 0 0 0 0 0 0 0 0 0 0 127 0"/><feOffset dy="5"/><feGaussianBlur stdDeviation="11"/><feColorMatrix values="0 0 0 0 0 0 0 0 0 0 0 0 0 0 0 0 0 0 0.11 0"/><feBlend in2="A"/><feBlend in="SourceGraphic"/></filter><linearGradient id="E" x1="-17" y1="325" x2="1810" y2="325" gradientUnits="userSpaceOnUse"><stop offset=".022" stop-color="#c4c4c4" stop-opacity="0"/><stop offset=".116" stop-color="#c4c4c4"/><stop offset=".887" stop-color="#c4c4c4"/><stop offset=".947" stop-color="#c4c4c4" stop-opacity="0"/></linearGradient><linearGradient id="F" x1="-17" y1="607" x2="1810" y2="607" gradientUnits="userSpaceOnUse"><stop offset=".022" stop-color="#c4c4c4" stop-opacity="0"/><stop offset=".116" stop-color="#c4c4c4"/><stop offset=".887" stop-color="#c4c4c4"/><stop offset=".947" stop-color="#c4c4c4" stop-opacity="0"/></linearGradient><clipPath id="G"><path fill="#fff" d="M0 0h1735v597H0z"/></clipPath></defs></svg>