<svg viewBox="0 0 2210 1839" fill="none" xmlns="http://www.w3.org/2000/svg">
  <mask id="a" maskUnits="userSpaceOnUse" x="0" y="0" width="2210" height="1839">
    <circle cx="367" cy="967" r="17" fill="#fff"/>
    <circle cx="220" cy="1049" r="14" fill="#fff"/>
    <circle cx="1561" cy="597" r="14" fill="#fff"/>
    <circle cx="1631" cy="792" r="27" fill="#fff"/>
    <circle cx="1886" cy="922" r="17" fill="#fff"/>
    <circle cx="1951" cy="806" r="14" fill="#fff"/>
    <circle cx="2201.5" cy="913.5" r="8.5" fill="#fff"/>
    <circle cx="1666" cy="280" r="14" fill="#fff"/>
    <circle cx="1624" cy="182" r="14" fill="#fff"/>
    <circle cx="1883" cy="196" r="14" fill="#fff"/>
    <circle cx="1789" cy="182" r="14" fill="#fff"/>
    <circle cx="1797.5" cy="11.5" r="11.5" fill="#fff"/>
    <circle cx="1417" cy="322" r="14" fill="#fff"/>
    <circle cx="1481" cy="504" r="14" fill="#fff"/>
    <circle cx="316" cy="1728" r="14" fill="#fff"/>
    <circle cx="14" cy="1825" r="14" fill="#fff"/>
    <circle cx="235" cy="1714" r="14" fill="#fff"/>
    <circle cx="10" cy="955" r="10" fill="#fff"/>
    <circle cx="592.5" cy="1112.5" r="13.5" fill="#fff"/>
    <circle cx="518" cy="1282" r="12" fill="#fff"/>
    <circle cx="646.5" cy="967.5" r="13.5" fill="#fff"/>
    <circle cx="693.5" cy="842.5" r="13.5" fill="#fff"/>
    <circle cx="750.5" cy="875.5" r="11.5" fill="#fff"/>
    <circle cx="448" cy="1203" r="10" fill="#fff"/>
    <circle cx="449" cy="1378" r="15" fill="#fff"/>
    <ellipse cx="466" cy="1459" rx="17" ry="16" fill="#fff"/>
    <circle cx="372.5" cy="1412.5" r="11.5" fill="#fff"/>
    <circle cx="406" cy="1507" r="10" fill="#fff"/>
    <circle cx="260.5" cy="1570.5" r="11.5" fill="#fff"/>
    <circle cx="730" cy="932" r="9" fill="#fff"/>
    <circle cx="849" cy="833" r="9" fill="#fff"/>
    <path stroke="#fff" stroke-width="3" d="M366.5 965.6l326-125M694.4 842.5l-47 125M646 968.5H367M645.4 965.6l84-35M728.6 932.6l-37-90M647.4 967.5l-54 145M590.8 1111.1l138-180M592.8 1113.3l-143 91M449.1 1202l70 79M516.6 1281.4l74-170M519.2 1282.9l-70 96M449.5 1203v175M448.6 1379.4l-76 35M450.4 1378.5l-43 129M404.6 1507.5l-34-94M373.2 1413.9l-112 158M259.4 1569.6l146-64M449.5 1377.7l18 81M466.9 1460.2l-60 48M728.6 931.5l20-57M749.2 876.3l-57-33"/>
    <circle cx="757" cy="1203" r="17" fill="#fff"/>
    <circle cx="977.5" cy="792.5" r="13.5" fill="#fff"/>
    <circle cx="898.5" cy="1091.5" r="13.5" fill="#fff"/>
    <circle cx="862.5" cy="945.5" r="22.5" fill="#fff"/>
    <circle cx="1062.5" cy="887.5" r="11.5" fill="#fff"/>
    <circle cx="1207" cy="824" r="9" fill="#fff"/>
    <circle cx="1179" cy="1001" r="9" fill="#fff"/>
    <path d="M586.5 1115.6L864 945M849.6 830.4l-99 46M898.1 1092.5l-307 21M896.8 1090.1l165-204M756.1 1203.8l141-114M592.7 1110.7l165 91M519.5 1280.6l237-77" stroke="#fff" stroke-width="3"/>
    <circle cx="1343" cy="492" r="12" fill="#fff"/>
    <circle cx="1246" cy="457" r="10" fill="#fff"/>
    <circle cx="1298" cy="640" r="22" fill="#fff"/>
    <ellipse cx="1285" cy="860" rx="17" ry="16" fill="#fff"/>
    <circle cx="1192.5" cy="571.5" r="11.5" fill="#fff"/>
    <circle cx="1206" cy="765" r="10" fill="#fff"/>
    <circle cx="1049.5" cy="728.5" r="10.5" fill="#fff"/>
    <path stroke="#fff" stroke-width="3" d="M1417.9 323.2l-173 135M1246.5 455.6l97 35M1341.6 491.4l74-170M1207.8 764.1l88-125M1344.4 492.4l-46 148M1296.2 641.3l-106-69M1192.5 571.9l13 193M1205.7 766.5l-156-37M1051 729.1l-72 64M1059 885.8l146-122M1207.2 764l79 95M1285.2 861.5l-225 27M1345.7 493.3l-154 80M896.5 1091.4l-36-146M1061.9 888l-85-95M978.5 793.4l-129 41M1060.4 888.4l-198 58M850.5 828.8l13 116M1178 1002.1l-116-114M1179.5 1002.4l-281 90M861.2 946.3l-112-70M1207.5 765v59M1284.4 861.4l-79-36M1062.4 885.6l144-63M1286.2 860.9l-104 141M1281.5 857.9l15-218M219.3 1047.7l147-82M219.4 1050.4l-210-95M361 966.5l-351-10M261.4 1570.5l56 157M407.4 1507.6l-90 221M1297.1 638.8l183-136M1290.8 638.5l270-43M1559.9 598l-80-93M1480.9 505.5l-135-12M1479.8 503l185-224M1413.8 320.5l252-42M1413.2 320.8l210-140M1664.6 280.6l-42-98M1665.5 278.6l217-84M1881.6 196.6l-85-185M1623 180.9l174-171M1624 180.5h162M1789.2 180.5l94 14M1787.5 181.9l9-171M1789.9 183.2l-123 98M316.5 1729.4l-302 97M261.1 1572l-250 254M315.7 1729.5l-81-14M261.5 1571.3l-25 143M235.7 1715.3l-221 111M1562.4 596.5l70 197M1631.1 790.5l320 14M1631.7 790.7l255 130M1886 920.5l316-9M2201.4 914.4l-251-107M1952.3 799.7l-65 123M1631.3 793.5l-346 68M1302.6 638.6l329 152M1245.4 457.6l-53 114M1192.1 567l-140 162"/>
  </mask>
  <g mask="url(#a)">
    <path fill="url(#paint0_linear)" d="M-47-43h2291v1929H-47z"/>
  </g>
  <defs>
    <linearGradient id="paint0_linear" x1="1260.5" y1="39.4" x2="1047.4" y2="1931.1" gradientUnits="userSpaceOnUse">
      <stop stop-color="#54FEFA"/>
      <stop offset=".5" stop-color="#8190FF"/>
      <stop offset="1" stop-color="#D819F7"/>
    </linearGradient>
  </defs>
</svg>
