<svg xmlns="http://www.w3.org/2000/svg" width="37" height="36" viewBox="0 0 37 36"><path d="M20.147 3.11L13.66 9.596l2.5 2.499 6.487-6.486a6.19 6.19 0 0 1 8.746 0 6.19 6.19 0 0 1 0 8.747l-6.487 6.487 2.5 2.5 6.487-6.487c3.79-3.79 3.79-9.956 0-13.745-3.79-3.791-9.957-3.79-13.746 0zM6.611 30.392a6.144 6.144 0 0 1-1.813-4.372 6.14 6.14 0 0 1 1.811-4.374h.001l6.486-6.487-2.5-2.499-6.485 6.486a9.649 9.649 0 0 0-2.845 6.872 9.652 9.652 0 0 0 2.846 6.873c3.788 3.788 9.955 3.79 13.746 0l6.485-6.486-2.5-2.5-6.486 6.487a6.192 6.192 0 0 1-8.746 0zm6.56-4.06l14.162-14.164-2.5-2.5-14.162 14.164 2.5 2.5z"/></svg>