<svg xmlns="http://www.w3.org/2000/svg" width="36" height="36" viewBox="0 0 36 36"><path d="M3.268 32.684c-3.742-3.789-3.647-9.805.048-13.452l6.49-6.442c.615-.663 1.326-1.232 2.13-1.61 4.311-2.511 9.806-1.138 12.506 2.889l-3.884 3.742c-.853-1.99-3.032-3.127-5.305-2.842a5.44 5.44 0 0 0-2.274 1.279l-6.11 6.11c-1.848 1.848-1.658 4.832.094 6.68 1.848 1.752 4.784 1.846 6.584.046l1.28-1.231c1.752.663 3.741 1.231 6.3.426l-4.359 4.405c-3.647 3.6-9.757 3.79-13.5 0zm21.08-8.1c-4.359 2.464-9.853 1.09-12.553-2.889l3.884-3.742c.853 1.99 2.984 3.126 5.258 2.795.852-.19 1.658-.569 2.274-1.28l5.92-5.826c1.848-1.847 1.658-4.831-.094-6.679-1.753-1.752-4.784-1.847-6.584-.047l-1.28 1.232c-1.752-.71-3.741-1.28-6.3-.427l4.359-4.405c3.647-3.695 9.757-3.79 13.5-.047 3.742 3.837 3.647 9.805-.048 13.5l-6.252 6.252c-.664.616-1.327 1.185-2.085 1.563z"/></svg>