<svg width="29" height="32" viewBox="0 0 29 32" xmlns="http://www.w3.org/2000/svg" xmlns:xlink="http://www.w3.org/1999/xlink"><title>blue/icon-ui-content-white-papers-blue</title><defs><path id="a" d="M0 0h28.19v31.238H0z"/></defs><g fill="none" fill-rule="evenodd"><mask id="b" fill="#fff"><use xlink:href="#a"/></mask><path d="M2.394 2.093c0 .002-.007.009.012.009h23.378c.002 0 .012.01.012-.009v27.052c0-.002.007-.009-.012-.009H2.406c-.001 0-.012-.01-.012.009V2.093zM0 3.04V28.2c0 1.668 1.377 3.04 3.059 3.04h22.073a3.04 3.04 0 0 0 3.058-3.04V3.039C28.19 1.371 26.813 0 25.132 0H3.059A3.04 3.04 0 0 0 0 3.04z" mask="url(#b)" fill="#1055FF"/><path fill="#1055FF" d="M6.11 5.949l16.759.292-.027 1.524-16.759-.292zm0 4.598l13.711.24-.026 1.524-13.712-.24zm0 4.558l15.235.266-.026 1.524-15.236-.266zm0 4.612l10.664.186-.026 1.524-10.665-.186zm0 4.544l13.711.24-.026 1.524-13.712-.24z"/></g></svg>